<svg viewBox="0 0 720 190" xmlns="http://www.w3.org/2000/svg">
  <defs>
    <linearGradient id="bg" x1="0" y1="0" x2="1" y2="1" gradientUnits="objectBoundingBox">
      <stop offset="0%" stop-color="#080c18"/>
      <stop offset="100%" stop-color="#130828"/>
    </linearGradient>
    <filter id="glow10" x="-200%" y="-200%" width="500%" height="500%">
      <feGaussianBlur stdDeviation="10"/>
    </filter>
    <filter id="glow4" x="-100%" y="-100%" width="300%" height="300%">
      <feGaussianBlur stdDeviation="4"/>
    </filter>
  </defs>

  <!-- Background -->
  <rect width="720" height="190" rx="8" fill="url(#bg)"/>

  <!-- Dreamy bokeh blobs -->
  <circle cx="100" cy="95" r="90" fill="#0d3461" opacity="0.4" filter="url(#glow10)"/>
  <circle cx="370" cy="60" r="70" fill="#2d1b69" opacity="0.35" filter="url(#glow10)"/>
  <circle cx="600" cy="130" r="80" fill="#0d3461" opacity="0.3" filter="url(#glow10)"/>
  <circle cx="700" cy="30" r="50" fill="#1e3a8a" opacity="0.25" filter="url(#glow10)"/>

  <!-- Stars -->
  <circle cx="230" cy="12" r="1" fill="white" opacity="0.7"/>
  <circle cx="265" cy="8" r="0.7" fill="white" opacity="0.5"/>
  <circle cx="295" cy="22" r="1.2" fill="white" opacity="0.8"/>
  <circle cx="340" cy="7" r="0.8" fill="white" opacity="0.6"/>
  <circle cx="360" cy="18" r="1" fill="white" opacity="0.5"/>
  <circle cx="400" cy="12" r="0.7" fill="white" opacity="0.7"/>
  <circle cx="420" cy="5" r="1" fill="white" opacity="0.4"/>
  <circle cx="445" cy="30" r="0.8" fill="white" opacity="0.6"/>
  <circle cx="465" cy="170" r="0.9" fill="white" opacity="0.5"/>
  <circle cx="505" cy="8" r="1" fill="white" opacity="0.7"/>
  <circle cx="530" cy="175" r="0.7" fill="white" opacity="0.4"/>
  <circle cx="555" cy="12" r="1.2" fill="white" opacity="0.6"/>
  <circle cx="585" cy="18" r="0.8" fill="white" opacity="0.5"/>
  <circle cx="610" cy="178" r="1" fill="white" opacity="0.5"/>
  <circle cx="640" cy="10" r="0.7" fill="white" opacity="0.7"/>
  <circle cx="665" cy="175" r="1" fill="white" opacity="0.4"/>
  <circle cx="680" cy="22" r="0.8" fill="white" opacity="0.6"/>
  <circle cx="700" cy="170" r="1.2" fill="white" opacity="0.5"/>
  <circle cx="715" cy="55" r="0.8" fill="white" opacity="0.6"/>
  <circle cx="200" cy="175" r="1" fill="white" opacity="0.5"/>
  <circle cx="210" cy="50" r="0.7" fill="white" opacity="0.4"/>
  <circle cx="225" cy="100" r="1" fill="white" opacity="0.6"/>
  <circle cx="255" cy="160" r="0.8" fill="white" opacity="0.5"/>
  <circle cx="280" cy="130" r="1" fill="white" opacity="0.4"/>
  <circle cx="310" cy="50" r="0.7" fill="white" opacity="0.7"/>
  <circle cx="330" cy="170" r="1" fill="white" opacity="0.5"/>
  <circle cx="350" cy="140" r="0.8" fill="white" opacity="0.4"/>
  <circle cx="385" cy="175" r="1.2" fill="white" opacity="0.6"/>
  <circle cx="410" cy="155" r="0.7" fill="white" opacity="0.5"/>
  <circle cx="430" cy="85" r="1" fill="white" opacity="0.4"/>
  <circle cx="455" cy="130" r="0.8" fill="white" opacity="0.6"/>

  <!-- Subtle vertical dividers -->
  <line x1="210" y1="10" x2="210" y2="180" stroke="white" stroke-width="0.5" stroke-opacity="0.06"/>
  <line x1="475" y1="10" x2="475" y2="180" stroke="white" stroke-width="0.5" stroke-opacity="0.06"/>

  <!-- ======================== -->
  <!-- GRID WORLD (left side)  -->
  <!-- ======================== -->
  <!-- Value function heatmap: fill=#4fc3f7 opacity varies by distance to goal (top-right) -->

  <!-- Row 0 (y=10) -->
  <rect x="15" y="10" width="34" height="34" fill="#4fc3f7" opacity="0.28" stroke="#4fc3f7" stroke-width="0.4" stroke-opacity="0.25"/>
  <rect x="49" y="10" width="34" height="34" fill="#4fc3f7" opacity="0.335" stroke="#4fc3f7" stroke-width="0.4" stroke-opacity="0.25"/>
  <rect x="83" y="10" width="34" height="34" fill="#4fc3f7" opacity="0.39" stroke="#4fc3f7" stroke-width="0.4" stroke-opacity="0.25"/>
  <rect x="117" y="10" width="34" height="34" fill="#4fc3f7" opacity="0.445" stroke="#4fc3f7" stroke-width="0.4" stroke-opacity="0.25"/>
  <rect x="151" y="10" width="34" height="34" fill="#4fc3f7" opacity="0.5" stroke="#4fc3f7" stroke-width="0.4" stroke-opacity="0.25"/>
  <!-- Row 1 (y=44) -->
  <rect x="15" y="44" width="34" height="34" fill="#4fc3f7" opacity="0.225" stroke="#4fc3f7" stroke-width="0.4" stroke-opacity="0.25"/>
  <rect x="49" y="44" width="34" height="34" fill="#4fc3f7" opacity="0.28" stroke="#4fc3f7" stroke-width="0.4" stroke-opacity="0.25"/>
  <rect x="83" y="44" width="34" height="34" fill="#4fc3f7" opacity="0.335" stroke="#4fc3f7" stroke-width="0.4" stroke-opacity="0.25"/>
  <rect x="117" y="44" width="34" height="34" fill="#4fc3f7" opacity="0.39" stroke="#4fc3f7" stroke-width="0.4" stroke-opacity="0.25"/>
  <rect x="151" y="44" width="34" height="34" fill="#4fc3f7" opacity="0.445" stroke="#4fc3f7" stroke-width="0.4" stroke-opacity="0.25"/>
  <!-- Row 2 (y=78) -->
  <rect x="15" y="78" width="34" height="34" fill="#4fc3f7" opacity="0.17" stroke="#4fc3f7" stroke-width="0.4" stroke-opacity="0.25"/>
  <rect x="49" y="78" width="34" height="34" fill="#4fc3f7" opacity="0.225" stroke="#4fc3f7" stroke-width="0.4" stroke-opacity="0.25"/>
  <rect x="83" y="78" width="34" height="34" fill="#4fc3f7" opacity="0.28" stroke="#4fc3f7" stroke-width="0.4" stroke-opacity="0.25"/>
  <rect x="117" y="78" width="34" height="34" fill="#4fc3f7" opacity="0.335" stroke="#4fc3f7" stroke-width="0.4" stroke-opacity="0.25"/>
  <rect x="151" y="78" width="34" height="34" fill="#4fc3f7" opacity="0.39" stroke="#4fc3f7" stroke-width="0.4" stroke-opacity="0.25"/>
  <!-- Row 3 (y=112) -->
  <rect x="15" y="112" width="34" height="34" fill="#4fc3f7" opacity="0.115" stroke="#4fc3f7" stroke-width="0.4" stroke-opacity="0.25"/>
  <rect x="49" y="112" width="34" height="34" fill="#4fc3f7" opacity="0.17" stroke="#4fc3f7" stroke-width="0.4" stroke-opacity="0.25"/>
  <rect x="83" y="112" width="34" height="34" fill="#4fc3f7" opacity="0.225" stroke="#4fc3f7" stroke-width="0.4" stroke-opacity="0.25"/>
  <rect x="117" y="112" width="34" height="34" fill="#4fc3f7" opacity="0.28" stroke="#4fc3f7" stroke-width="0.4" stroke-opacity="0.25"/>
  <rect x="151" y="112" width="34" height="34" fill="#4fc3f7" opacity="0.335" stroke="#4fc3f7" stroke-width="0.4" stroke-opacity="0.25"/>
  <!-- Row 4 (y=146) -->
  <rect x="15" y="146" width="34" height="34" fill="#4fc3f7" opacity="0.06" stroke="#4fc3f7" stroke-width="0.4" stroke-opacity="0.25"/>
  <rect x="49" y="146" width="34" height="34" fill="#4fc3f7" opacity="0.115" stroke="#4fc3f7" stroke-width="0.4" stroke-opacity="0.25"/>
  <rect x="83" y="146" width="34" height="34" fill="#4fc3f7" opacity="0.17" stroke="#4fc3f7" stroke-width="0.4" stroke-opacity="0.25"/>
  <rect x="117" y="146" width="34" height="34" fill="#4fc3f7" opacity="0.225" stroke="#4fc3f7" stroke-width="0.4" stroke-opacity="0.25"/>
  <rect x="151" y="146" width="34" height="34" fill="#4fc3f7" opacity="0.28" stroke="#4fc3f7" stroke-width="0.4" stroke-opacity="0.25"/>

  <!-- Policy arrows (up along col 1, right along row 0) -->
  <path d="M66,169 L66,157 M62,161 L66,157 L70,161" stroke="#94a3b8" stroke-width="1.2" stroke-opacity="0.5" fill="none"/>
  <path d="M66,135 L66,123 M62,127 L66,123 L70,127" stroke="#94a3b8" stroke-width="1.2" stroke-opacity="0.5" fill="none"/>
  <path d="M66,101 L66,89 M62,93 L66,89 L70,93" stroke="#94a3b8" stroke-width="1.2" stroke-opacity="0.5" fill="none"/>
  <path d="M66,67 L66,55 M62,59 L66,55 L70,59" stroke="#94a3b8" stroke-width="1.2" stroke-opacity="0.5" fill="none"/>
  <path d="M60,27 L72,27 M68,23 L72,27 L68,31" stroke="#94a3b8" stroke-width="1.2" stroke-opacity="0.5" fill="none"/>
  <path d="M94,27 L106,27 M102,23 L106,27 L102,31" stroke="#94a3b8" stroke-width="1.2" stroke-opacity="0.5" fill="none"/>
  <path d="M128,27 L140,27 M136,23 L140,27 L136,31" stroke="#94a3b8" stroke-width="1.2" stroke-opacity="0.5" fill="none"/>
  <!-- A few extra arrows on other cells -->
  <path d="M32,169 L32,157 M28,161 L32,157 L36,161" stroke="#94a3b8" stroke-width="1.2" stroke-opacity="0.35" fill="none"/>
  <path d="M100,169 L100,157 M96,161 L100,157 L104,161" stroke="#94a3b8" stroke-width="1.2" stroke-opacity="0.35" fill="none"/>
  <path d="M128,129 L140,129 M136,125 L140,129 L136,133" stroke="#94a3b8" stroke-width="1.2" stroke-opacity="0.4" fill="none"/>

  <!-- Path trail glow -->
  <polyline points="66,129 66,95 66,61 66,27 100,27 134,27 168,27"
            stroke="#38bdf8" stroke-width="5" stroke-opacity="0.12" fill="none" filter="url(#glow4)"/>
  <!-- Path trail -->
  <polyline points="66,129 66,95 66,61 66,27 100,27 134,27 168,27"
            stroke="#7dd3fc" stroke-width="1.5" stroke-opacity="0.55" fill="none" stroke-dasharray="3,2"/>

  <!-- Goal glow + star -->
  <circle cx="168" cy="27" r="22" fill="#fde68a" opacity="0.2" filter="url(#glow4)"/>
  <circle cx="168" cy="27" r="11" fill="#fde68a" opacity="0.3"/>
  <path d="M168,18 L169.5,23.5 L175,25 L169.5,26.5 L168,32 L166.5,26.5 L161,25 L166.5,23.5 Z"
        fill="#fde068" opacity="0.92"/>

  <!-- Agent glow + core -->
  <circle cx="66" cy="129" r="16" fill="#38bdf8" opacity="0.2" filter="url(#glow4)"/>
  <circle cx="66" cy="129" r="8" fill="#7dd3fc" opacity="0.75"/>
  <circle cx="66" cy="129" r="3.5" fill="white" opacity="0.9"/>

  <!-- Grid label -->
  <text x="98" y="188" text-anchor="middle" fill="#4fc3f7" opacity="0.35" font-size="8" font-family="monospace" letter-spacing="1">STATE SPACE</text>

  <!-- =========================== -->
  <!-- CENTER: Floating RL poetry  -->
  <!-- =========================== -->
  <text x="240" y="52" fill="#a78bfa" opacity="0.45" font-size="18" font-family="Georgia, serif" font-style="italic">Q*(s,a)</text>
  <text x="295" y="93" fill="#7dd3fc" opacity="0.3" font-size="11" font-family="monospace">maximize &#x03A3;&#x03B3;&#x1D57;r&#x1D57;</text>
  <text x="375" y="148" fill="#818cf8" opacity="0.4" font-size="16" font-family="Georgia, serif" font-style="italic">&#x03C0;(a|s)</text>
  <text x="235" y="158" fill="#4fc3f7" opacity="0.25" font-size="14" font-family="Georgia, serif" font-style="italic">V*(s)</text>
  <text x="308" y="62" fill="white" opacity="0.12" font-size="8" font-family="monospace">Bellman optimality</text>
  <text x="338" y="172" fill="#c4b5fd" opacity="0.2" font-size="9" font-family="monospace">reward signal</text>

  <!-- Small sparkles in center -->
  <circle cx="260" cy="110" r="1.5" fill="#a78bfa" opacity="0.5"/>
  <circle cx="305" cy="130" r="1" fill="#4fc3f7" opacity="0.4"/>
  <circle cx="332" cy="80" r="1.2" fill="#a78bfa" opacity="0.45"/>
  <circle cx="355" cy="115" r="0.8" fill="white" opacity="0.5"/>
  <circle cx="410" cy="70" r="1.5" fill="#4fc3f7" opacity="0.35"/>
  <circle cx="430" cy="118" r="1" fill="#818cf8" opacity="0.4"/>
  <circle cx="452" cy="48" r="0.9" fill="white" opacity="0.4"/>

  <!-- =========================== -->
  <!-- NEURAL NETWORK (right side) -->
  <!-- =========================== -->

  <!-- All connections i→h (thin, 0.18 opacity) -->
  <line x1="490" y1="40" x2="575" y2="28" stroke="#818cf8" stroke-width="0.5" opacity="0.18"/>
  <line x1="490" y1="40" x2="575" y2="62" stroke="#818cf8" stroke-width="0.5" opacity="0.18"/>
  <line x1="490" y1="40" x2="575" y2="96" stroke="#818cf8" stroke-width="0.5" opacity="0.18"/>
  <line x1="490" y1="40" x2="575" y2="130" stroke="#818cf8" stroke-width="0.5" opacity="0.18"/>
  <line x1="490" y1="40" x2="575" y2="164" stroke="#818cf8" stroke-width="0.5" opacity="0.18"/>
  <line x1="490" y1="80" x2="575" y2="28" stroke="#818cf8" stroke-width="0.5" opacity="0.18"/>
  <line x1="490" y1="80" x2="575" y2="62" stroke="#818cf8" stroke-width="0.5" opacity="0.18"/>
  <line x1="490" y1="80" x2="575" y2="96" stroke="#818cf8" stroke-width="0.8" opacity="0.45"/>
  <line x1="490" y1="80" x2="575" y2="130" stroke="#818cf8" stroke-width="0.5" opacity="0.18"/>
  <line x1="490" y1="80" x2="575" y2="164" stroke="#818cf8" stroke-width="0.5" opacity="0.18"/>
  <line x1="490" y1="120" x2="575" y2="28" stroke="#818cf8" stroke-width="0.5" opacity="0.18"/>
  <line x1="490" y1="120" x2="575" y2="62" stroke="#818cf8" stroke-width="0.8" opacity="0.45"/>
  <line x1="490" y1="120" x2="575" y2="96" stroke="#818cf8" stroke-width="0.5" opacity="0.18"/>
  <line x1="490" y1="120" x2="575" y2="130" stroke="#818cf8" stroke-width="0.5" opacity="0.18"/>
  <line x1="490" y1="120" x2="575" y2="164" stroke="#818cf8" stroke-width="0.5" opacity="0.18"/>
  <line x1="490" y1="160" x2="575" y2="28" stroke="#818cf8" stroke-width="0.5" opacity="0.18"/>
  <line x1="490" y1="160" x2="575" y2="62" stroke="#818cf8" stroke-width="0.5" opacity="0.18"/>
  <line x1="490" y1="160" x2="575" y2="96" stroke="#818cf8" stroke-width="0.5" opacity="0.18"/>
  <line x1="490" y1="160" x2="575" y2="130" stroke="#818cf8" stroke-width="0.5" opacity="0.18"/>
  <line x1="490" y1="160" x2="575" y2="164" stroke="#818cf8" stroke-width="0.5" opacity="0.18"/>

  <!-- All connections h→o -->
  <line x1="575" y1="28" x2="660" y2="52" stroke="#4fc3f7" stroke-width="0.5" opacity="0.18"/>
  <line x1="575" y1="28" x2="660" y2="95" stroke="#4fc3f7" stroke-width="0.5" opacity="0.18"/>
  <line x1="575" y1="28" x2="660" y2="138" stroke="#4fc3f7" stroke-width="0.5" opacity="0.18"/>
  <line x1="575" y1="62" x2="660" y2="52" stroke="#4fc3f7" stroke-width="0.5" opacity="0.18"/>
  <line x1="575" y1="62" x2="660" y2="95" stroke="#4fc3f7" stroke-width="0.5" opacity="0.18"/>
  <line x1="575" y1="62" x2="660" y2="138" stroke="#4fc3f7" stroke-width="0.5" opacity="0.18"/>
  <line x1="575" y1="96" x2="660" y2="52" stroke="#4fc3f7" stroke-width="0.8" opacity="0.48"/>
  <line x1="575" y1="96" x2="660" y2="95" stroke="#4fc3f7" stroke-width="0.5" opacity="0.18"/>
  <line x1="575" y1="96" x2="660" y2="138" stroke="#4fc3f7" stroke-width="0.5" opacity="0.18"/>
  <line x1="575" y1="130" x2="660" y2="52" stroke="#4fc3f7" stroke-width="0.5" opacity="0.18"/>
  <line x1="575" y1="130" x2="660" y2="95" stroke="#4fc3f7" stroke-width="0.5" opacity="0.18"/>
  <line x1="575" y1="130" x2="660" y2="138" stroke="#4fc3f7" stroke-width="0.5" opacity="0.18"/>
  <line x1="575" y1="164" x2="660" y2="52" stroke="#4fc3f7" stroke-width="0.5" opacity="0.18"/>
  <line x1="575" y1="164" x2="660" y2="95" stroke="#4fc3f7" stroke-width="0.5" opacity="0.18"/>
  <line x1="575" y1="164" x2="660" y2="138" stroke="#4fc3f7" stroke-width="0.5" opacity="0.18"/>

  <!-- Input node glows -->
  <circle cx="490" cy="40" r="9" fill="#a78bfa" opacity="0.18"/>
  <circle cx="490" cy="80" r="9" fill="#a78bfa" opacity="0.18"/>
  <circle cx="490" cy="120" r="9" fill="#a78bfa" opacity="0.18"/>
  <circle cx="490" cy="160" r="9" fill="#a78bfa" opacity="0.18"/>
  <!-- Input nodes -->
  <circle cx="490" cy="40" r="5" fill="#a78bfa" opacity="0.85"/>
  <circle cx="490" cy="80" r="5" fill="#a78bfa" opacity="0.85"/>
  <circle cx="490" cy="120" r="5" fill="#a78bfa" opacity="0.85"/>
  <circle cx="490" cy="160" r="5" fill="#a78bfa" opacity="0.85"/>

  <!-- Hidden node glows + nodes -->
  <circle cx="575" cy="28" r="9" fill="#818cf8" opacity="0.18"/>
  <circle cx="575" cy="62" r="9" fill="#818cf8" opacity="0.25"/>
  <circle cx="575" cy="96" r="11" fill="#818cf8" opacity="0.3"/>
  <circle cx="575" cy="130" r="9" fill="#818cf8" opacity="0.2"/>
  <circle cx="575" cy="164" r="9" fill="#818cf8" opacity="0.15"/>
  <circle cx="575" cy="28" r="5" fill="#818cf8" opacity="0.7"/>
  <circle cx="575" cy="62" r="5" fill="#818cf8" opacity="0.8"/>
  <circle cx="575" cy="96" r="5.5" fill="#818cf8" opacity="0.92"/>
  <circle cx="575" cy="130" r="5" fill="#818cf8" opacity="0.75"/>
  <circle cx="575" cy="164" r="4.5" fill="#818cf8" opacity="0.65"/>

  <!-- Output node glows (size encodes Q value magnitude) -->
  <circle cx="660" cy="52" r="14" fill="#4fc3f7" opacity="0.22"/>
  <circle cx="660" cy="95" r="9" fill="#4fc3f7" opacity="0.15"/>
  <circle cx="660" cy="138" r="7" fill="#4fc3f7" opacity="0.12"/>
  <!-- Output nodes -->
  <circle cx="660" cy="52" r="7" fill="#4fc3f7" opacity="0.95"/>
  <circle cx="660" cy="95" r="5" fill="#4fc3f7" opacity="0.75"/>
  <circle cx="660" cy="138" r="3.5" fill="#4fc3f7" opacity="0.55"/>

  <!-- Action labels -->
  <text x="672" y="55" fill="#4fc3f7" opacity="0.55" font-size="9" font-family="monospace">&#x2191;</text>
  <text x="672" y="98" fill="#4fc3f7" opacity="0.42" font-size="9" font-family="monospace">&#x2192;</text>
  <text x="672" y="141" fill="#4fc3f7" opacity="0.3" font-size="9" font-family="monospace">&#x2193;</text>

  <!-- NN labels -->
  <text x="490" y="6" text-anchor="middle" fill="#a78bfa" opacity="0.45" font-size="8" font-family="monospace">s</text>
  <text x="660" y="6" text-anchor="middle" fill="#4fc3f7" opacity="0.45" font-size="8" font-family="monospace">Q(s,·)</text>
  <text x="575" y="188" text-anchor="middle" fill="#818cf8" opacity="0.35" font-size="8" font-family="monospace" letter-spacing="1">POLICY NETWORK</text>
</svg>
